<svg width="160" height="60">
  <rect x="0" y="0" width="20" height="20" style="fill:#00ff00;stroke:black">
    <title>armandofox</title>
  </rect>
  <rect x="20" y="0" width="20" height="20" style="fill:#00ff00;stroke:black">
    <title>mtc2013</title>
  </rect>
  <rect x="40" y="0" width="20" height="20" style="fill:#00ff00;stroke:black">
    <title>marian</title>
  </rect>
  <rect x="60" y="0" width="20" height="20" style="fill:#7f7f00;stroke:black">
    <title>marianscat</title>
  </rect>
  <rect x="80" y="0" width="20" height="20" style="fill:#ff0000;stroke:black">
    <title>randompenguin</title>
  </rect>
  <rect x="100" y="0" width="20" height="20" style="fill:#3fbf00;stroke:black">
    <title>ghost</title>
  </rect>
  <rect x="120" y="0" width="20" height="20" style="fill:#bf3f00;stroke:black">
    <title>othercat</title>
  </rect>
  <rect x="140" y="0" width="20" height="20" style="fill:#ff0000;stroke:black">
    <title>pikachu</title>
  </rect>
  <rect x="0" y="20" width="20" height="20" style="fill:#00ff00;stroke:black">
    <title>blastoise</title>
  </rect>
  <rect x="20" y="20" width="20" height="20" style="fill:#3fbf00;stroke:black">
    <title>hitmonchan</title>
  </rect>
  <rect x="40" y="20" width="20" height="20" style="fill:#7f7f00;stroke:black">
    <title>magmar</title>
  </rect>
  <rect x="60" y="20" width="20" height="20" style="fill:#bf3f00;stroke:black">
    <title>meowth</title>
  </rect>
  <rect x="80" y="20" width="20" height="20" style="fill:#bf3f00;stroke:black">
    <title>pidgy</title>
  </rect>
  <rect x="100" y="20" width="20" height="20" style="fill:#7f7f00;stroke:black">
    <title>scyther</title>
  </rect>
  <rect x="120" y="20" width="20" height="20" style="fill:#3fbf00;stroke:black">
    <title>abra</title>
  </rect>
  <rect x="140" y="20" width="20" height="20" style="fill:#ff0000;stroke:black">
    <title>wartortle</title>
  </rect>
  <rect x="0" y="40" width="20" height="20" style="fill:#3fbf00;stroke:black">
    <title>raticate</title>
  </rect>
  <rect x="20" y="40" width="20" height="20" style="fill:#00ff00;stroke:black">
    <title>hypno</title>
  </rect>
  <rect x="40" y="40" width="20" height="20" style="fill:#7f7f00;stroke:black">
    <title>eevee</title>
  </rect>
  <rect x="60" y="40" width="20" height="20" style="fill:#00ff00;stroke:black">
    <title>vaporeon</title>
  </rect>
  <rect x="80" y="40" width="20" height="20" style="fill:#ffffff;stroke:black">
    <title>filler for symmetry (does not represent a person)</title>
  </rect>
  <rect x="100" y="40" width="20" height="20" style="fill:#ffffff;stroke:black">
    <title>filler for symmetry (does not represent a person)</title>
  </rect>
  <rect x="120" y="40" width="20" height="20" style="fill:#ffffff;stroke:black">
    <title>filler for symmetry (does not represent a person)</title>
  </rect>
  <rect x="140" y="40" width="20" height="20" style="fill:#ffffff;stroke:black">
    <title>filler for symmetry (does not represent a person)</title>
  </rect>
</svg>